<?xml version="1.0" encoding="utf-8" ?><svg xmlns="http://www.w3.org/2000/svg" xmlns:xlink="http://www.w3.org/1999/xlink" width="408" height="612" viewBox="0 0 408 612"><path fill="#604519" d="M197.056 30.9503C200.325 30.6305 205.883 30.7321 209.206 30.8407C229.02 31.3351 248.473 36.2485 266.144 45.222C271.85 48.1481 278.755 51.8179 283.97 55.5681C309.168 73.6906 329.432 98.8545 341.286 127.575C344.439 135.212 346.579 142.025 349.059 149.707C354.908 149.662 358.539 150.815 362.878 154.865C367.584 159.259 369.727 165.66 369.756 172.014C369.808 183.236 369.687 194.52 369.66 205.749L369.744 256.941L369.773 414.789L369.81 503.448L369.805 526.084C369.836 530.234 370.26 537.181 369.674 541.065C366.201 564.116 337.307 567.2 319.331 570.457C296.589 574.702 273.615 577.598 250.531 579.129C235.952 580.032 223.551 580.087 208.983 580.079C162.053 581.039 114.469 576.004 68.5994 566.166C61.5312 564.65 53.1768 562.078 47.5566 557.4C35.9091 547.703 37.8925 535.956 37.8708 522.597C37.8028 510.987 37.8165 499.376 37.9121 487.766L38.0975 387.295L38.0258 245.55L37.9794 193.192C37.9972 185.512 37.8022 177.65 38.0255 170.082C38.2625 162.046 42.8871 154.679 50.1486 151.268C53.1972 149.836 55.7744 149.853 59.0586 149.595C66.201 126.572 74.0031 108.106 89.1737 89.0835C91.7961 85.7952 94.3961 82.0386 97.2094 78.9362C122.743 50.2472 158.698 32.9672 197.056 30.9503Z"/><defs><linearGradient id="gradient_0" gradientUnits="userSpaceOnUse" x1="217.16862" y1="572.56982" x2="184.19691" y2="38.463017"><stop offset="0" stop-color="#A67322"/><stop offset="1" stop-color="#D0A23D"/></linearGradient></defs><path fill="url(#gradient_0)" d="M206.668 37.4935C270.336 38.7793 320.365 83.7014 339.055 143.076C340.295 147.017 340.722 151.887 342.433 155.604L342.603 155.967C346.105 156.64 349.608 156.735 353.055 157.342C359.036 158.396 362.726 166.405 362.875 171.82C363.192 183.282 362.798 194.768 362.882 206.222L362.938 291.775L363.013 528.031C363.023 531.361 363.084 535.102 362.681 538.395C360.267 558.089 335.814 559.443 320.687 562.199C282.136 569.221 242.171 573.08 203.021 572.558C196.575 572.802 190.672 572.201 184.243 571.995C164.556 571.297 144.904 569.834 125.331 567.611C123.134 567.348 120.942 566.935 118.751 566.596C98.9216 563.527 78.337 561.773 59.157 555.682C51.2342 553.166 46.3645 546.217 45.0071 538.319C44.4382 535.009 44.8324 529.458 44.8173 525.957L44.8686 496.031L44.9801 386.284L44.9227 246.631L44.9563 199.526C44.9333 190.537 44.8639 181.534 44.884 172.551C44.9494 168.024 47.5159 160.622 51.7718 158.379C54.8811 156.741 61.6865 156.485 65.4319 155.902C67.1139 152.448 69.0448 142.285 70.9345 137.021C78.5252 115.471 90.5628 95.7579 106.266 79.1597C125.636 58.6942 155.642 42.3872 183.654 38.4402C191.359 37.3545 198.889 37.7017 206.668 37.4935Z"/><path fill="#604519" d="M131.457 234.782C132.418 235.439 132.439 236.952 132.642 238.059C134.807 249.514 129.951 261.393 131.008 272.795C131.595 279.137 138.639 286.253 141.592 292.284C143.565 287.696 147 283.253 149.466 278.67C151.501 274.887 149.375 261.47 151.983 261.02C153.855 262.099 155.696 268.618 156.445 270.903C158.213 268.624 165.872 257.529 168.582 259.288C170.363 264.262 161.06 280.337 158.999 285.525C156.126 292.483 153.589 298.795 152.756 306.31C151.814 314.804 154.718 317.637 157.864 324.809C161.064 332.107 162.997 337.953 168.205 344.222C179.841 337.169 175.178 327.088 185.615 319.099C186.611 318.338 188.959 316.721 190.215 316.898C192.956 319.8 185.725 332.941 187.615 336.621C188.909 336.971 189.393 336.996 189.994 338.015C189.635 342.411 182.77 350.689 181.147 356.153C179.216 362.653 178.868 367.837 182.568 374.121C184.355 377.155 187.006 379.649 188.487 383.09C190.821 387.457 191.965 395.569 194.52 399.515C198.988 406.415 202.647 410.872 206.368 418.414C209.166 410.927 213.328 402.324 217.488 395.534C223.382 385.912 229.972 379.396 233.022 368.17C234.867 361.377 234.575 359.245 234.781 352.437C235.239 337.298 233.085 327.808 225.793 314.291C216.62 311.889 207.927 311.802 200.59 304.182C198.278 301.745 196.433 298.902 195.149 295.798C192.33 289.051 192.354 278.505 188.325 272.774C181.226 262.674 191.934 265.232 198.096 265.372C208.195 265.601 218.237 269.573 225.089 277.065C233.391 286.011 232.914 297.568 231.971 308.871C231.795 310.919 233.257 312.287 234.532 313.672C235.016 305.113 239.269 297.224 240.173 288.898C240.378 287.01 238.566 281.621 238.332 279.029C237.548 270.346 239.737 261.751 245.401 255.031C252.408 246.675 262.449 241.443 273.314 240.488C276.337 240.217 288.919 239.213 290.966 240.925C291.275 241.809 291.283 243.054 291.039 243.922C289.647 248.865 287.059 253.673 285.555 258.677C281.7 271.499 276.428 281.755 263.419 287.269C257.218 289.897 254.617 290.533 248.967 294.377C246.026 304.505 244.274 313.16 244.869 323.73C247.077 321.41 249.665 319.235 251.95 316.969C254.265 314.923 254.419 312.412 255.45 309.657C261.949 292.296 276.987 284.026 295.086 290.206C303.434 293.057 308.279 297.947 314.616 303.877C316.495 305.636 322.087 309.226 320.739 312.317C313.681 316.214 308.179 319.199 301.662 323.889C294.712 328.893 283.271 331.095 275.098 328.788C268.758 326.998 264.714 323.128 257.841 321.97C254.536 325.392 252.753 329.622 250.709 333.802C246.649 342.105 249.17 350.909 248.17 359.658C247.456 365.911 245.995 372.315 244.679 378.468C249.673 376.179 250.195 377.662 250.402 382.468C248.48 385.619 245.25 387.69 242.378 389.999C237.067 394.27 234.89 397.994 232.007 404.098C228.362 411.816 224.06 420.146 223.383 428.889C222.969 434.25 223.916 442.809 226.416 447.702C227.346 449.286 228.884 451.123 230.108 452.581C232.195 455.148 233.44 456.901 235.037 459.844C236.755 463.013 238.209 467.958 240.7 470.386C244.011 473.617 249.512 474.152 253.652 476.131C258.069 478.242 260.405 482.436 264.456 484.76C266.954 486.192 270.749 487.517 273.616 487.853C283.649 489.029 286.51 492.361 292.702 499.818C295.801 499.86 301.671 500.74 304.181 502.285C309.5 505.558 311.178 509.956 317.813 511.708C321.689 512.732 331.359 519.09 327.755 524.171C324.783 528.473 318.571 527.307 314.523 528.435C310.643 529.516 308.779 531.43 304.037 531.11C301.661 530.95 298.488 532.56 295.927 531.975C292.193 531.121 289.441 535.628 285.719 535.959C280.994 536.764 276.165 537.833 271.359 537.787C267.899 537.755 264.346 536.822 260.881 537.379C249.641 543.5 237.621 545.408 224.908 544.174C220.399 543.736 215.86 542.183 211.61 540.743C203.339 543.608 200.559 541.409 192.494 541.029C191.311 540.973 187.359 542.658 185.796 542.842C174.313 544.197 160.846 543.688 149.672 540.608C146.283 539.673 143.518 537.87 140.617 536.687C138.719 536.964 135.052 537.451 133.382 537.789C125.93 539.298 113.584 537.989 106.992 533.817C106.216 532.594 105.326 530.804 104.623 529.493C100.636 529.743 80.9969 529.247 80.3602 522.359C79.9434 517.85 88.9094 514.187 93.2396 513.868C93.5838 513.314 93.9559 512.777 94.3543 512.261C97.9212 507.708 104.561 504.075 110.361 503.393C112.464 501.077 114.508 498.402 117.021 496.597C121.561 493.338 128.86 491.672 134.36 492.535C136.474 490.906 138.755 488.319 141.04 486.561C147.712 481.426 154.681 480.724 162.73 479.869C168.164 479.292 172.219 473.17 175.287 468.789C172.618 460.318 172.643 450.799 166.759 443.32C160.863 435.991 156.81 431.736 154.265 422.257C151.255 411.05 142.65 400.276 131.527 396.354C126.655 394.636 117.152 393.937 112.12 395.232C108.035 396.284 93.9096 394.77 95.5513 388.373C96.3524 387.412 96.8487 387.417 98.4357 388.127C101.728 389.598 105.971 387.959 109.487 386.786C107.956 384.678 102.528 378.257 105.27 376.083C108.156 375.804 111.846 380.547 116.15 381.755C123.192 383.732 124.908 382.332 131.781 382.232C134.371 382.194 138.315 383.332 140.896 384.06C140.101 377.897 138.285 372.085 137.046 366.025C136.065 360.796 135.061 354.45 134.301 349.306C132.461 336.864 127.155 333.006 115.471 330.33C111.298 329.374 108.775 329.362 104.482 331.049C101.195 332.34 98.5316 334.682 95.0595 335.42C91.3221 336.303 87.8685 335.423 84.1074 335.696C81.9397 335.944 77.4066 338.159 74.7896 338.416C73.2499 338.567 70.1084 339.205 68.6306 338.213C68.1086 337.863 68.1748 337.465 68.0716 336.851C68.9021 334.152 77.0142 330.666 79.9482 328.542L80.254 328.317C78.5229 326.627 72.049 323.092 73.224 320.735C76.0408 319.228 87.2335 323.959 92.4705 324.5C95.341 322.982 99.1082 320.274 101.881 318.394C96.6255 314.538 92.1704 310.305 87.0787 306.36C84.5269 304.383 78.911 303.086 75.8048 301.72C72.4468 300.244 69.9307 298.504 67.2776 295.933C65.0623 293.79 62.2523 292.025 63.3294 288.567C64.6919 287.554 69.9318 290.97 71.9137 291.51C75.8956 292.595 79.9092 293.057 83.9827 293.647C83.749 290.713 83.5021 285.595 82.5792 282.999C81.7612 280.698 78.3093 276.548 78.036 274.047C78.3825 272.957 78.1129 273.277 78.9637 272.688C81.0199 272.643 85.4539 276.997 87.1774 278.466C91.8385 282.436 92.315 289.397 95.5701 294.292C98.1758 298.21 102.603 302.447 107.066 304.129C109.327 304.975 113.484 305.431 115.481 306.679C120.495 309.812 122.465 311.73 128.362 313.112C127.629 309.26 127.428 304.071 126.357 300.601C124.634 295.153 120.931 290.339 118.935 285.026C115.55 276.02 113.994 266.331 107.932 258.496C105.751 255.677 99.2432 250.386 98.4885 247.258C98.908 245.9 100.058 245.92 101.372 246.116C111.129 247.566 114.642 250.674 120.648 258.098C122.848 254.393 124.721 249.833 126.304 245.823C127.812 242.005 127.999 237.362 131.457 234.782Z"/><path fill="#7E761E" d="M259.11 313.684C267.949 287.905 290.805 288.259 308.228 304.507C310.281 306.421 312.453 307.845 314.325 310.068C300.922 317.211 291.777 328.347 274.583 323.457C270.884 322.405 265.9 319.293 262.413 317.28C265.878 314.86 270.548 312.485 274.602 311.386C279.731 312.885 283.175 313.731 287.526 317.017C288.354 317.642 289.519 318.504 290.559 318.539L290.792 318.162C289.835 315.755 284.622 312.659 282.395 311.219C281.652 310.739 280.424 311.153 279.858 310.622C281.381 307.032 297.345 307.619 300.779 307.82C302.824 307.513 305.531 308.349 306.921 307.653C300.831 305.6 289.628 304.697 283.214 305.267L283.465 304.979C285.615 302.537 288.308 301.325 290.337 299.056L290.035 299.216C287.344 300.631 287.35 299.597 285.187 300.567C283.296 301.416 280.816 304.098 279.046 305.185C276.773 306.581 273.344 307.055 270.893 308.092C271.635 306.189 273.434 302.03 273.062 300.09C271.582 301.03 269.544 307.503 267.33 309.186C264.835 311.083 261.92 312.334 259.11 313.684Z"/><path fill="#605B18" d="M306.921 307.653L311.216 309.099C309.938 308.922 301.019 308.012 300.779 307.82C302.824 307.513 305.531 308.349 306.921 307.653Z"/><path fill="#7E761E" d="M276.078 245.153C279.031 244.873 282.456 244.997 285.414 245.2C284.695 247.439 283.512 249.835 282.805 252.122C276.276 273.249 269.864 281.321 247.973 287.942C251.749 277.66 254.114 268.555 265.663 266.157C268.183 265.634 272.067 265.538 274.309 264.481L274.128 264.227C270.957 263.681 263.043 265.012 259.439 265.495C263.194 260.345 265.907 257.578 270.935 253.441C271.942 252.54 279.651 246.878 279.408 247.185C278.043 246.987 275.389 248.906 274.167 249.602C266.322 254.077 259.548 260.192 254.014 267.309C254.158 265.363 254.355 260.856 254.096 259.039L253.807 258.96C252.823 259.945 251.534 269.518 250.689 271.523C248.688 276.27 246.509 280.361 244.875 285.275C244.409 282.505 243.509 279.326 243.148 276.636C242.433 271.305 245.094 262.875 248.642 258.801C256.979 249.231 264.031 246.552 276.078 245.153Z"/><path fill="#605B18" d="M246.878 268.178C247.951 268.009 248.681 267.867 249.642 268.33C249.444 269.061 249.422 268.861 248.517 269.394C248.175 269.911 248.215 269.895 247.681 270.202L247.085 269.898C246.679 268.804 246.642 269.172 246.878 268.178Z"/><path fill="#7E761E" d="M191.879 269.916C202.405 270.285 211.398 271.419 219.791 278.67C227.835 285.62 226.976 295.024 227.576 305.009C225.695 302.469 222.174 295.639 221.606 292.539C220.993 289.2 220.854 286.789 219.754 283.305C219.023 286.015 218.921 288.042 218.967 290.835C218.46 290.117 217.368 288.745 216.912 288.074C214.599 284.67 200.935 273.356 197.765 273.049C201.516 276.753 205.619 280.195 209.364 283.894C210.189 284.709 210.589 285.354 210.403 286.494C209.486 287.071 209.774 286.891 208.513 286.883L208.216 286.906C207.194 286.981 203.912 286.787 203.619 286.958L203.667 286.931L204.239 287.343L204.186 287.356L204.472 287.43C205.666 287.746 206.094 287.919 207.212 288.431C217.2 290.508 217.818 293.482 221.387 302.541C219.132 301.513 215.614 299.674 213.191 300.255C213.858 301.337 220.475 303.668 222.097 304.302C222.78 305.442 223.657 307.332 224.278 308.566C220.969 307.824 217.475 307.374 214.227 306.554C199.572 302.854 198.376 289.429 195.377 277.209C194.774 274.752 193.213 272.1 191.879 269.916Z"/><path fill="#605B18" d="M203.763 285.595C203.032 284.034 201.048 280.147 201.543 278.497C203.171 280.179 204.594 283.371 204.573 285.754C205.546 286.456 207.208 286.603 208.513 286.883L208.216 286.906C207.194 286.981 203.912 286.787 203.619 286.958L203.667 286.931L204.239 287.343L204.186 287.356L204.472 287.43C205.666 287.746 206.094 287.919 207.212 288.431C205.621 288.516 202.808 288.144 201.681 286.994C202.107 286.166 202.753 286.089 203.763 285.595Z"/><path fill="#4F3611" d="M170.713 378.879C172.62 378.989 173.936 378.845 175.312 380.183C176.239 382.947 172.932 392.092 171.814 395.022C175.315 396.868 180.338 399.479 183.988 400.771C183.89 402.534 184.093 404.624 182.612 405.778C180.019 406.255 172.888 402.228 170.199 400.883C169.757 402.996 166.795 414.261 165.966 415.226C158.55 413.585 164.135 403.156 165.35 397.51C161.167 395.737 155.242 393.618 153.006 389.766C153.603 388.579 153.976 387.624 155.108 387.05C157.554 387.09 164.601 390.936 166.825 392.356C168.219 388.312 169.172 382.653 170.713 378.879Z"/><path fill="#4F3611" d="M149.265 302.008C149.651 302.885 148.116 313.963 148.68 316.359C149.329 319.12 150.076 318.988 151.268 321.612C154.091 327.826 156.871 333.945 159.695 340.166C161.504 344.149 164.663 348.851 165.726 353.004C166.044 354.246 165.368 358.694 165.437 360.763L165.452 361.145C165.8 359.784 166.031 358.548 166.759 357.346C166.966 357.973 166.363 359.87 166.165 360.639C165.917 361.252 165.772 361.35 165.196 361.52C163.979 359.987 166.124 354.896 165.083 352.191C163.209 347.32 160.544 343.034 158.337 338.262C156.735 334.794 155.158 331.315 153.604 327.825C152.994 326.43 152.237 324.4 151.655 323.107C151.234 322.171 148.9 321.193 148.432 319.448C147.651 316.538 148.779 313.532 148.141 310.678C146.908 310.336 146.417 310.309 146.174 309.007C146.852 308.428 146.98 309.93 148.124 309.962C148.617 308.105 148.706 304.665 149.265 302.008Z"/><path fill="#4F3611" d="M127.45 251.517C127.721 253.416 125.67 255.687 125.537 257.59C125.487 258.302 126.354 257.865 126.788 259.682L126.532 260.028C126.296 260.078 124.762 260.397 124.76 260.666C124.736 263.073 125.448 267.988 122.522 268.923L122.138 268.529C121.536 265.417 117.757 261.964 115.974 259.233L114.918 258.119L115.095 257.92C119.141 262.277 119.76 262.774 122.706 268.1L123.175 268.015C124.771 266.006 124.004 260.951 124.993 257.906C125.793 255.441 126.422 253.925 127.45 251.517Z"/><path fill="#4F3611" d="M143.295 311.509C144.787 313.152 146.171 319.145 144.479 321.009C143.608 320.078 142.083 312.597 143.295 311.509Z"/><path fill="#4F3611" d="M133.579 526.517C134.35 526.451 134.643 526.511 135.419 526.609C136.045 527.313 135.89 526.955 135.895 528.012C135.363 528.021 134.899 527.953 134.37 527.899C133.539 527.244 133.758 527.608 133.579 526.517Z"/><path fill="#605B18" d="M188.831 88.2405L189.129 88.2194C192.903 87.9668 218.623 87.5525 220.07 88.8889C221.287 90.0126 221.635 91.8983 221.834 93.4776C222.324 97.354 222.008 101.614 221.99 105.529C221.95 114.466 221.673 123.475 222.004 132.403C229.35 132.873 260.838 131.218 265.099 133.549C267.021 136.265 265.663 160.532 265.964 165.145C266.177 168.404 263.775 169.195 260.887 169.314C256.073 169.511 251.135 169.353 246.257 169.329L221.99 169.377C221.743 176.162 221.948 184.233 221.979 191.067L221.985 223.97C221.984 229.32 222.246 236.355 221.654 241.695C221.539 242.728 220.168 243.435 219.293 243.913C218.941 243.94 218.589 243.964 218.237 243.984C214.649 244.183 188.117 244.665 186.504 243.063C185.799 242.364 185.677 240.065 185.62 239.104C185.276 233.273 185.524 227.276 185.525 221.43C185.527 204.171 186.162 186.735 185.501 169.497C175.057 168.7 163.446 169.816 152.897 169.41C150.043 169.299 147.111 169.606 144.262 169.099C141.505 168.608 140.903 165.985 140.924 163.591C140.979 156.128 141.15 148.68 140.894 141.217C140.797 138.386 140.445 132.674 144.551 132.531C148.82 132.382 153.161 132.463 157.439 132.472C166.825 132.532 176.211 132.527 185.597 132.457L185.589 106.42C185.56 101.733 185.336 95.9422 185.761 91.2806C185.877 90.0175 187.801 88.8865 188.831 88.2405Z"/><path fill="#B19F32" d="M191.933 94.2143L215.419 94.2592C214.954 98.6246 214.685 134.209 215.663 138.364C217.224 139.707 230.217 139.186 233.075 139.188L259.888 139.329C260.101 146.817 259.989 154.763 260.004 162.285C255.191 162.281 217.301 161.931 215.839 163.012C214.802 166.654 215.22 183.03 215.216 187.821L215.157 235.85L215.044 236.535C214.163 237.21 194.962 236.933 192.028 236.945C191.636 219.809 192.196 202.185 191.907 185.033C191.829 180.412 192.239 167.053 191.473 163.019C189.199 162.058 151.583 162.243 147.669 162.543C147.378 155.76 147.469 146.064 147.651 139.271C156.877 139.051 166.415 139.381 175.674 139.26C181.068 139.19 186.375 139.521 191.725 138.722C192.064 135 191.791 129.935 191.872 126.106C192.093 115.67 191.526 104.598 191.933 94.2143Z"/><path fill="#D9B557" d="M163.75 188.505C165.417 186.368 167.672 184.905 169.857 183.325C170.999 182.5 171.169 182.62 172.313 182.846C174.177 184.681 173.321 186.702 171.688 188.301C171.06 189.794 151.514 211.301 149.002 213.995C148.09 214.974 144.26 218.541 142.862 219.053C142.3 219.259 142.103 219.102 141.558 218.79C140.457 218.157 139.97 217.299 139.607 216.13C139.198 214.813 140.621 213.322 141.172 212.41C142.422 210.342 163.544 188.611 163.75 188.505Z"/><path fill="#D9B557" d="M163.75 188.505C165.417 186.368 167.672 184.905 169.857 183.325C170.999 182.5 171.169 182.62 172.313 182.846C174.177 184.681 173.321 186.702 171.688 188.301C172.241 187.045 172.82 186.296 172.709 185.082C172.082 184.439 170.543 184.333 169.58 184.216C168.521 184.987 164.482 188.193 163.75 188.505Z"/><path fill="#D9B557" d="M235.635 182.322C238.26 181.437 260.914 206.755 263.736 210.331C266.335 213.626 266.027 214.874 262.557 216.837C261.167 217.054 260.671 216.924 259.746 215.872C252.028 207.093 244.031 198.554 236.258 189.83C233.914 187.2 231.471 184.625 235.635 182.322Z"/><path fill="#D9B557" d="M261.669 83.9629C263.261 84.2298 264.156 84.4964 265.063 85.8952C265.267 86.7024 265.22 87.1687 264.832 87.9094C262.944 91.5083 244.168 112.077 240.605 115.114C238.71 116.73 236.895 117.892 234.515 118.65C233.302 118.832 230.973 119.143 230.585 117.735C231.191 115.285 232.969 116.614 234.219 114.892C235.701 113.103 237.485 109.283 239.049 107.746C246.816 100.112 253.634 91.2321 261.669 83.9629Z"/><path fill="#D9B557" d="M142.952 86.858C147.633 88.1256 169.423 111.815 173.332 116.769L170.613 119.588C170.551 119.578 170.489 119.572 170.428 119.558C166.355 118.566 147.882 99.1063 144.016 94.6529C142.618 93.0427 141.405 91.329 140.223 89.5571C140.971 88.6654 142.082 87.6791 142.952 86.858Z"/><path fill="#D9B557" d="M287.975 104.64C288.957 104.787 290.975 106.3 290.439 107.3C288.207 111.462 282.471 113.473 278.583 115.905C274.357 118.55 270.246 121.168 265.833 123.414C264.961 123.779 265.007 123.771 264.063 123.782C263.184 123.189 263.458 123.525 263.072 122.468C263.65 118.963 284.39 105.498 287.975 104.64Z"/><path fill="#D9B557" d="M265.501 176.714C267.039 176.817 284.898 186.877 287.107 188.271C288.387 189.078 289.537 189.965 290.635 191.01C290.15 192.187 289.616 193.193 289.032 194.322C281.99 193.494 276.428 187.625 270.182 184.475C268.031 183.39 265.425 181.794 263.748 180.077C264.35 178.477 264.548 178.141 265.501 176.714Z"/><path fill="#D9B557" d="M105.496 148.742C109.579 148 130.519 147.186 132.158 151.143C131.934 152.008 131.085 153.028 130.655 153.079C126.132 153.612 112.982 153.917 108.984 153.667C107.229 154.246 104.227 154.308 102.979 152.698C102.626 150.798 103.836 149.509 105.496 148.742Z"/><path fill="#B19F32" d="M108.984 153.667C107.229 154.246 104.227 154.308 102.979 152.698C102.626 150.798 103.836 149.509 105.496 148.742C105.333 150.05 105.047 151.372 105.349 152.622C106.47 153.975 107.275 153.687 108.984 153.667Z"/><path fill="#D9B557" d="M277.743 147.926C285.18 147.55 294.488 148.114 302.038 148.262C303.409 148.288 304.386 151.669 301.379 152.909C297.159 153.003 278.553 153.478 275.77 152.563C274.654 149.977 275.044 148.528 277.743 147.926Z"/><path fill="#D9B557" d="M137.22 177.152C138.808 177.077 140.05 178.29 141.39 179.258C138.454 181.26 134.638 182.898 131.485 184.679C127.595 186.877 123.994 189.21 120.282 191.695C120.054 191.824 119.792 191.876 119.53 191.954C118.853 191.333 118.064 190.726 117.65 189.902C116.555 187.658 118.932 185.654 120.672 184.666C125.932 181.682 131.566 179.255 137.22 177.152Z"/><path fill="#D9B557" d="M117.182 114.189C121.563 114.126 130.823 118.335 134.57 120.754C136.094 121.739 136.602 123.456 135.331 124.977C131.375 124.221 127.196 122.379 123.285 121.148C121.668 120.639 117.067 119.265 116.328 117.639C115.857 116.604 116.698 115.196 117.182 114.189Z"/><path fill="#D9B557" d="M170.686 212.644C171.045 213.119 172.589 216.696 172.496 216.893C170.879 220.328 168.86 233.156 164.439 233.299C164.069 233.171 163.701 233.035 163.336 232.892C162.295 232.472 162.131 232.261 161.755 231.368C161.939 228.265 168.579 215.43 170.686 212.644Z"/><path fill="#D9B557" d="M201.769 62.0098C203.192 61.912 204.115 61.7941 205.529 62.031C208.543 64.8163 205.728 78.3648 206.27 82.2791C205.293 81.9832 202.875 80.2462 201.899 79.5935C201.313 77.203 201.111 64.2279 201.769 62.0098Z"/><path fill="#D9B557" d="M171.25 68.3229C172.157 68.2441 172.772 68.2223 173.682 68.2318C174.992 68.9208 176.768 73.9834 177.263 75.6028C178.178 78.599 181.958 86.5449 178.775 88.7056C175.837 86.4371 171.242 74.8791 169.809 71.0189C169.551 70.3267 170.786 68.8603 171.25 68.3229Z"/><path fill="#D9B557" d="M235.25 65.2914C236.512 65.4627 237.65 66.9225 238.7 67.9103C235.946 73.5014 234.095 80.3111 231.401 85.4186C230.675 85.4421 229.281 84.9969 228.555 84.7681C227.905 83.8873 228.565 81.6752 228.924 80.6898C230.703 75.8075 231.391 68.9389 235.25 65.2914Z"/><path fill="#D9B557" d="M235.471 211.175C238.327 219.091 243.474 225.397 245.167 231.809C244.807 232.249 243.873 233.511 243.449 233.706C240.579 235.024 238.586 230.043 237.597 228.134C237.072 227.122 236.587 226.048 236.107 225.046C235.247 221.481 230.018 216.562 233.576 213.993C233.4 214.839 233.179 215.498 232.918 216.31C233.381 217.703 233.797 219.334 235.004 220.109L234.934 220.137C237.588 219.493 237.061 219.713 239.006 221.77L239.322 221.535C238.75 218.976 235.416 214.31 235.471 211.175Z"/><path fill="#A07023" d="M320.488 511.524L321.156 511.226C324.218 512.611 334.765 515.42 337.936 515.568L337.872 515.944L337.282 516.233C335.763 516.225 334.696 516.012 333.404 515.195L333.27 515.081C333.33 516.773 333.73 515.745 332.978 517.305L332.713 517.161L332.683 516.174C332.02 515.286 332.094 515.089 331.16 514.721C330.518 515.07 329.967 516.602 329.402 517.471L328.976 517.44C327.441 516.437 327.299 515.007 326.097 513.826C325.227 512.972 321.103 512.29 320.488 511.524Z"/><path fill="#A07023" d="M328.173 478.978C331.024 480.47 331.481 482.229 329.09 484.469C328.003 484.437 327.784 484.523 327.001 483.875C325.828 481.705 326.541 480.485 328.173 478.978Z"/><path fill="#B19F32" d="M247.812 121.765C249.363 122.851 251.306 126.293 248.451 127.268C247.528 127.043 247.432 126.991 246.82 126.266C246.776 125.431 247.446 124.474 247.877 123.695L247.643 123.212C246.736 123.318 246.889 125.498 245.041 126.537C244.139 126.389 244.421 126.431 243.647 125.596L243.778 125.373L244.809 125.731C246.739 124.735 245.836 123.021 247.812 121.765Z"/><path fill="#B19F32" d="M84.6007 138.968C85.7426 139.616 85.5133 139.271 85.9938 140.295C85.9611 141.412 85.5675 142.11 85.1217 143.12C84.2235 142.435 83.8072 142.253 83.4248 141.199C83.5139 140.117 83.9047 139.82 84.6007 138.968Z"/><path fill="#B19F32" d="M185.435 75.5778C187.576 75.4783 188.615 75.1588 189.488 77.2082C187.63 77.0893 185.997 77.4833 185.435 75.5778Z"/><path fill="#A07023" d="M295.368 393.703C295.766 393.388 296.342 393.446 296.669 393.835C296.996 394.223 296.955 394.801 296.577 395.14C296.322 395.368 295.962 395.439 295.639 395.326C295.316 395.212 295.08 394.932 295.024 394.595C294.967 394.257 295.099 393.916 295.368 393.703Z"/><path fill="#A07023" d="M320.93 540.445C322.434 540.788 322.684 541.672 322.958 543.077C321.426 542.589 321.265 541.956 320.93 540.445Z"/></svg>