<?xml version="1.0" encoding="utf-8" ?><svg xmlns="http://www.w3.org/2000/svg" xmlns:xlink="http://www.w3.org/1999/xlink" width="408" height="612" viewBox="0 0 408 612"><path fill="#47422B" d="M272.361 128.609C278.536 127.773 289.788 129.864 295.644 132.194C328.907 145.427 346.507 183.117 350.36 216.754C353.322 242.605 347.993 270.972 339.146 295.276C338.619 296.723 337.747 298.845 337.94 300.453C339.237 306.182 341.263 311.778 342.868 317.443L349.602 341.581C350.59 345.017 351.586 348.557 352.697 351.991C353.194 353.528 355.91 356.263 356.449 357.787C358.804 364.451 361.556 372.851 361.79 379.901C361.874 382.418 361.289 384.687 360.466 386.888C354.059 404.018 332.212 417.33 316.404 424.346C288.813 436.457 257.555 441.065 227.689 436.568C215.81 434.779 196.158 430.476 190.83 417.959C188.46 412.39 187.569 402.268 187.709 396.141C187.753 394.201 188.921 391.258 189.675 389.388C189.373 388.349 188.776 386.02 188.048 385.31C174.022 371.647 158.386 358.186 144.391 344.637C132.584 333.718 120.65 322.659 108.694 311.933C101.05 317.388 93.649 320.371 84.2868 321.801C69.3355 324.085 52.2987 319.011 50.451 301.502C48.5173 283.176 56.4782 264.947 67.5601 250.583C77.7185 237.416 96.5755 223.55 112.931 235.629C119.745 240.724 124.318 254.22 126.397 262.359C127.473 266.57 127.923 273.262 128.376 277.763C131.921 280.126 136.146 283.443 139.748 285.981L180.596 315.037C180.382 310.217 180.002 305.169 179.326 300.059C177.216 284.123 176.081 267.186 172.599 251.514C171.393 246.084 167.43 241.704 169.086 235.223C172.398 222.255 184.16 214.286 194.794 207.541C198 205.532 201.636 204.171 204.681 202.009L204.997 201.782C205.267 200.763 205.502 199.252 205.628 198.193C209.275 167.459 228.889 138.257 259.997 130.378C263.984 129.368 268.229 129.07 272.361 128.609ZM313.249 218.313C314.296 224.758 317.314 232.025 319.364 238.345C320.453 241.699 321.806 246.387 323.274 249.426C324.454 226.115 323.747 206.708 313.213 185.14C305.576 169.503 293.289 152.257 274.552 150.101C263.175 152.307 255.686 157.577 248.947 166.907C246.134 170.801 237.06 186.937 237.931 191.079C238.298 191.234 238.355 191.36 238.734 191.273C244.885 189.865 250.896 188.603 257.255 188.012C274.821 186.38 302.69 186.994 311.556 205.558C313.164 209.259 313.25 214.309 313.249 218.313Z"/><path fill="#4A5C52" d="M212.676 263.03C219.373 263.012 226.206 263.449 232.681 261.886C233.433 261.727 235.354 262.841 235.937 262.774C236.805 262.673 237.784 261.374 238.886 261.325C246.266 260.999 252.595 258.747 259.562 256.794C265.717 255.069 271.537 253.76 277.25 250.587C278.596 249.892 280.498 249.353 281.874 248.482C285.268 246.334 288.862 244.322 292.253 242.182C293.827 241.188 298.933 237.099 299.745 236.778L299.908 237.891L300.336 237.677C300.546 236.748 299.98 236.363 300.347 236.025C303.037 233.546 306.104 229.497 308.378 226.849L308.658 226.763C310.411 228.577 311.698 232.975 312.593 235.457C312.403 236.156 312.301 236.552 312.194 237.267C313.429 238.603 313.322 237.95 313.795 239.518C313.411 240.365 312.556 240.359 312.908 240.684C314.82 242.458 315.482 244.573 316.224 247.1C318.001 253.156 319.234 259.477 321.008 265.538L339.452 328.086L345.313 348.087C345.675 349.293 348.506 358.818 348.487 359.438C348.214 368.261 343.522 374.161 337.639 380.023C332.959 384.688 326.356 390.255 320.599 393.323C299.127 404.768 274.037 411.486 249.704 412.221C246.167 412.328 240.608 412.368 237.288 412.077L236.111 412.114C232.712 412.006 231.348 412.184 228.235 410.669C222.042 412.097 193.6 403.978 195.637 394.537C195.651 393.904 195.519 392.876 195.455 392.219L195.665 391.97L196.739 392.618L196.365 392.947L196.532 393.251C197.151 393.245 197.385 393.072 197.894 392.773C199.257 393.546 200.074 393.586 201.173 394.107L199.29 394.369C200.702 395.767 202.068 394.32 203.724 393.858C204.267 394.195 204.451 394.37 204.914 394.783L205.36 394.614C206.299 392.891 209.32 391.508 211.209 390.412C210.592 390.892 210.572 391.027 210.245 391.713L210.403 391.978C212.386 390.666 217.929 381.58 218.74 379.014C222.287 367.235 220.353 353.04 214.623 342.239C210.728 334.897 200.948 331.1 196.738 325.568L196.503 325.257C195.048 325.292 187.376 318.949 186.958 316.627C186.249 312.688 186.744 308.259 186.083 304.483C183.315 288.66 181.469 272.686 180.126 256.685C181.449 256.367 187.647 259.254 189.396 259.908C195.676 262.258 201.434 261.971 207.792 262.909C209.201 262.745 211.214 262.94 212.676 263.03Z"/><path fill="#485347" d="M195.637 394.537L195.789 394.797C196.745 396.443 196.878 398.475 197.957 399.647C202.764 404.87 211.568 406.767 218.053 409.103C219.122 409.488 221.661 409.109 223.74 409.833L224.183 408.941C226.268 408.612 226.622 410.075 228.235 410.669C222.042 412.097 193.6 403.978 195.637 394.537Z"/><path fill="#485347" d="M207.792 262.909C209.201 262.745 211.214 262.94 212.676 263.03C212.273 263.141 210.245 263.432 210.057 263.645C209.561 264.204 209.708 264.691 208.798 265.056C208.097 264.341 208.061 263.87 207.792 262.909Z"/><path fill="#485347" d="M236.111 412.114C235.93 410.86 235.859 410.603 236.32 409.385C237.004 409.855 236.96 409.842 237.301 410.618C237.276 411.031 237.187 411.718 237.288 412.077L236.111 412.114Z"/><path fill="#50635C" d="M238.73 279.573L239.042 279.471C239.868 279.951 239.781 280.255 240.22 281.286C241.548 281.281 246.231 281.997 246.288 283.632C244.47 283.593 244.256 283.847 243.494 282.181L243.137 282.47C243.226 283.562 244 283.945 244.563 284.869C245.401 286.244 245.468 287.701 246.954 288.478C248.013 288.297 249.537 286.876 250.775 286.102C250.378 285.527 250.03 284.975 249.659 284.383L249.807 283.815C251.235 283.296 251.525 283.526 252.434 284.505C252.708 285.498 252.544 285.667 252.144 286.69C251.156 288.015 251.299 287.849 251.366 289.73C250.815 290.528 251.093 290.363 250.29 290.664L250.132 290.333C251.069 289.666 250.926 289.551 250.688 288.647C249.156 287.831 248.241 290.422 246.225 290.024C244.95 289.772 242.684 290.923 241.418 290.748C239.493 289.122 239.537 283.456 242.444 282.594L242.453 282.092L240.183 282.056L238.73 279.573Z"/><path fill="#5F756D" d="M220.829 290.718C221.128 290.134 221.426 289.374 221.941 289.028C222.315 286.914 221.159 288.223 222.017 286.869L226.219 286.391C226.474 287.129 226.365 289.522 226.405 290.526C228.484 289.261 229.103 289.252 229.428 286.726L229.815 286.407L230.094 286.712C229.904 287.328 229.212 288.36 229.217 288.322C229.072 289.391 229.599 289.588 228.788 290.353C227.191 290.67 227.184 290.64 226.106 292.127C223.806 292.449 224.161 289.934 221.517 292.748C220.732 292.407 220.707 292.043 220.235 291.101L220.829 290.718Z"/><path fill="#5F756D" d="M248.436 310.185C248.498 311.121 248.624 310.893 248.205 311.547C247.863 310.95 247.537 310.327 247.211 309.72C247.252 310.535 246.972 312.624 246.295 313.103C245.923 312.226 246.24 311.413 246.4 310.323C245.337 310.008 244.737 309.894 243.824 309.226C243.528 308.274 243.516 308.742 243.926 307.777L244.603 307.633C243.989 307.055 244.329 307.158 243.607 307.168C243.256 307.852 243.114 308.33 242.457 308.708L241.688 308.448C241.137 307.545 241.229 308.015 241.36 306.997L241.976 306.578C243.227 306.443 248.026 307.338 248.745 308.252C249.534 308.396 249.727 308.457 250.479 308.742L251.076 309.178L250.606 309.504L251.491 310.126C250.328 310.418 250.134 310.271 249.368 311.046C249.393 311.593 249.383 311.564 249.596 312.067L249.148 312.073C248.77 311.475 248.795 311.204 248.717 310.511L248.436 310.185Z"/><path fill="#586C63" d="M248.436 310.185C248.148 309.582 248.195 309.526 248.201 308.874C249.101 308.386 249.312 308.613 250.479 308.742L251.076 309.178L250.606 309.504L251.491 310.126C250.328 310.418 250.134 310.271 249.368 311.046C249.393 311.593 249.383 311.564 249.596 312.067L249.148 312.073C248.77 311.475 248.795 311.204 248.717 310.511L248.436 310.185Z"/><path fill="#50635C" d="M231.304 272.762C233.242 272.85 233.716 272.763 235.353 273.825L235.198 274.703C234.536 274.956 234.108 274.633 233.286 274.354L232.904 274.58L232.853 275.394L233.365 275.365L234.809 275.763L234.875 276.213L235.461 276.191C234.733 276.585 233.316 276.151 232.41 276.496C231.487 276.847 230.884 276.726 230.127 276.235C229.845 275.132 230.628 273.599 231.304 272.762Z"/><path fill="#586C63" d="M249.151 325.614L249.449 325.923L249.205 326.628C250.319 326.874 250.281 326.675 250.916 327.356C250.549 328.376 250.017 328.249 248.744 329C248.306 329.963 248.39 329.539 248.472 330.636C249.062 331.331 248.777 331.111 249.694 331.398L250.596 330.546C250.46 331.207 250.38 331.32 250.104 331.92C249.126 332.396 248.822 332.635 247.771 332.46C245.625 330.561 247.963 327.449 249.151 325.614Z"/><path fill="#5F756D" d="M261.538 320.277L262.757 320.21C263.914 320.763 264.324 323.574 264.111 324.604C262.729 324.76 262.532 324.709 261.574 323.99C260.952 322.879 261.258 321.525 261.538 320.277Z"/><path fill="#5F756D" d="M251.054 333.998L251.11 334.529C250.378 335.737 250.287 336.539 250.162 337.952L250.146 338.148L249.563 338.521L248.929 338.36C248.604 336.97 247.533 336.248 247.543 335.292C248.879 334.523 249.389 334.722 250.839 334.093L251.054 333.998Z"/><path fill="#5F756D" d="M212.028 272.916L212.884 273.317C213.609 274.544 214.754 276.245 213.527 277.325C212.586 277.441 212.313 277.44 211.569 278.031C211.044 278.204 210.992 278.148 210.41 278.153L210.421 277.884C211.095 277.807 211.119 277.823 211.78 277.557C212.466 275.666 210.529 275.255 212.028 272.916Z"/><path fill="#50635C" d="M212.816 266.165C213.393 266.261 213.931 266.579 214.282 266.611C215.329 266.686 216.151 266.293 216.983 267.169C217.673 267.895 217.901 267.454 218.618 268.142C218.289 268.23 218.116 268.29 217.824 268.48C214.434 270.685 215.638 267.705 212.816 266.165Z"/><path fill="#5F756D" d="M244.206 318.102C244.597 318.336 244.952 318.694 245.301 319.004C245.326 319.723 245.301 319.784 245.114 320.496L245.064 320.68C246.154 321.282 245.687 320.555 247.298 320.511C247.123 321.215 246.835 321.195 246.058 321.762C245.014 321.517 242.711 320.998 242.576 319.975C242.979 318.991 243.384 318.778 244.206 318.102Z"/><path fill="#50635C" d="M195.143 265.482C194.804 266.655 195.382 266.302 195.15 267.905L194.484 267.718C194.707 267.71 194.601 267.746 194.79 267.581L194.171 267.222L193.169 267.744L192.642 268.016C191.659 267.529 191.907 267.826 191.493 266.954L191.889 266.349C192.849 265.739 194.011 265.656 195.143 265.482Z"/><path fill="#50635C" d="M210.266 278.623C211.521 278.762 211.818 278.853 212.305 279.965C212.217 281.07 211.975 281.28 211.291 282.178C210.558 282.357 210.936 282.337 210.118 282.107C209.429 281.045 209.825 279.718 210.266 278.623Z"/><path fill="#5F756D" d="M226.932 291.439C227.87 291.619 230.01 292.748 230.445 293.606L230.109 293.789C228.641 294.233 227.897 294.459 226.742 293.267C226.466 292.029 226.4 292.512 226.932 291.439Z"/><path fill="#50635C" d="M251.641 310.353C252.519 310.635 253.004 310.881 253.35 311.692C252.828 312.725 253.084 312.366 251.803 313.048C251.193 312.927 250.488 312.496 250.094 311.971C250.407 310.892 250.523 311.095 251.641 310.353Z"/><path fill="#5F756D" d="M220.04 273.323C221.224 273.203 221.458 273.318 222.247 273.923C222.263 274.872 222.339 274.507 221.742 275.374C220.565 275.684 219.833 275.964 219.051 274.944C219.252 273.912 219.208 274.219 220.04 273.323Z"/><path fill="#5F756D" d="M257.214 350.275L257.57 350.318L257.829 350.65C257.735 352.264 257.471 352.869 256.044 353.382C255.646 352.686 255.206 352.136 255.301 351.359C255.947 351.005 256.575 350.644 257.214 350.275Z"/><path fill="#5F756D" d="M268.333 336.843C268.627 336.891 268.896 337.062 269.186 337.204L269.182 337.571C268.41 338.365 267.447 338.618 266.391 339.029C265.877 338.116 265.716 338.198 265.817 337.372C266.499 336.841 267.415 336.91 268.333 336.843Z"/><path fill="#5F756D" d="M226.193 308.617C227.131 309.084 228.278 309.812 228.179 310.925L227.354 311.522L226.816 310.615C225.921 310.343 225.815 310.29 225.093 309.696C225.286 308.944 225.267 309.169 226.193 308.617Z"/><path fill="#50635C" d="M254.35 293.62L254.538 293.793C254.441 294.908 254.496 295.07 253.857 295.923L253.173 295.598C252.214 295.565 252.613 295.723 251.9 295.219L251.941 294.592C253.009 293.513 252.595 293.823 254.35 293.62Z"/><path fill="#50635C" d="M220.235 291.101L219.098 291.007C218.422 290.449 218.227 290.277 217.368 290.102L217.389 289.646C220.094 289.799 217.867 289.348 219.567 288.545C220.798 289.619 219.574 289.508 220.829 290.718L220.235 291.101Z"/><path fill="#586C63" d="M205.424 290.395C206.571 291.781 207.693 292.659 209.566 292.95C208.293 293.325 207.175 293.616 205.961 292.925C205.184 291.773 205.426 292.006 205.424 290.395Z"/><path fill="#586C63" d="M274.131 283.754C274.831 283.943 274.58 283.744 274.939 284.33C274.784 285.479 274.132 286.364 273.524 287.351C272.14 285.911 272.775 285.065 274.131 283.754Z"/><path fill="#50635C" d="M213.137 279.878C213.601 279.505 214.278 279.576 214.656 280.036C215.033 280.497 214.968 281.175 214.511 281.556C214.049 281.942 213.359 281.877 212.977 281.41C212.595 280.944 212.667 280.256 213.137 279.878Z"/><path fill="#50635C" d="M294.594 299.9C295.799 300.144 296.498 300.584 297.713 300.409L297.764 300.694C297.261 301.361 297.24 301.463 296.491 301.739C295.474 301.333 295.36 300.864 294.594 299.9Z"/><path fill="#586C63" d="M273.453 268.942L273.806 269.111L273.985 269.727C273.665 270.731 273.519 270.816 272.665 271.453L271.949 270.694C272.161 269.774 272.604 269.663 273.453 268.942Z"/><path fill="#9E7F46" d="M97.1765 237.069C105.253 236.169 112.361 242.127 113.574 250.153C117.042 273.104 97.0338 311.075 72.6923 314.672C63.1451 314.682 56.7436 309.353 55.496 299.803C53.5608 284.988 60.9129 268.188 69.4098 256.455C76.5544 246.59 84.7708 238.907 97.1765 237.069Z"/><path fill="#47422B" d="M73.5221 290.731C72.3495 289.426 73.0606 288.857 72.726 288.377C71.8577 287.134 71.1167 287.496 70.8712 285.592C72.0066 282.824 76.1676 283.097 77.2754 284.781L78.8578 287.432C78.2167 289.145 77.7816 291.004 76.0954 291.782C74.7593 291.81 74.5381 291.719 73.5221 290.731Z"/><path fill="#7D6330" d="M73.5221 290.731C72.3495 289.426 73.0606 288.857 72.726 288.377C71.8577 287.134 71.1167 287.496 70.8712 285.592C72.0066 282.824 76.1676 283.097 77.2754 284.781C73.0177 287.008 74.284 286.861 73.5221 290.731Z"/><path fill="#47422B" d="M68.8942 299.627C73.2365 300.295 72.0078 304.555 68.7263 306.379C63.4644 305.55 66.2775 301.721 68.8942 299.627Z"/><path fill="#47422B" d="M98.9965 244.644C103.625 245.446 100.471 249.903 98.0847 251.517C93.1577 250.357 96.3104 246.421 98.9965 244.644Z"/><path fill="#47422B" d="M88.5489 259.6C93.5121 260.167 89.8525 264.707 87.499 266.318C85.9576 266.167 86.378 266.411 85.3879 265.615C84.3305 263.171 86.6301 260.797 88.5489 259.6Z"/><path fill="#47422B" d="M94.1564 284.704C99.2687 285.561 96.1727 289.155 94.1362 291.441C89.4221 290.491 91.0407 286.632 94.1564 284.704Z"/><path fill="#47422B" d="M82.0387 296.571C83.1886 296.658 83.4187 296.636 84.3373 297.306C85.7365 299.682 84.2448 301.695 82.4278 303.298C77.8979 302.871 79.3871 298.801 82.0387 296.571Z"/><path fill="#47422B" d="M76.1863 257.241C79.4385 259.227 76.553 263.342 73.8614 264.408C70.0577 262.064 73.1235 258.118 76.1863 257.241Z"/><path fill="#47422B" d="M102.052 268.211C106.935 268.317 104.011 273 101.788 274.892C101.031 275.113 100.542 274.919 99.8891 274.602C98.378 272.48 100.406 269.613 102.052 268.211Z"/><path fill="#47422B" d="M87.7031 246.76C91.5243 247.925 88.8198 252.089 86.3018 253.517C85.2181 253.377 85.036 253.377 84.2166 252.673C83.2017 250.155 85.7969 247.975 87.7031 246.76Z"/><path fill="#47422B" d="M63.4202 287.041C64.4341 287.1 64.5256 287.062 65.3283 287.616C66.6393 289.649 65.0964 292.477 63.4545 293.843C62.4399 293.853 62.0496 293.977 61.3072 293.392C59.8608 291.15 61.7028 288.533 63.4202 287.041Z"/><path fill="#47422B" d="M88.6368 273.948C89.6297 273.933 89.6664 273.926 90.5204 274.387C92.0103 276.687 90.0243 278.761 88.273 280.231C87.2414 280.234 87.1132 280.224 86.2318 279.697C84.6774 277.359 86.8855 275.352 88.6368 273.948Z"/><path fill="#47422B" d="M104.227 253.931C108.867 254.214 105.582 258.502 103.364 260.096C102.419 260.018 102.308 259.992 101.508 259.486C100.263 257.05 102.212 255.11 104.227 253.931Z"/><path fill="#47422B" d="M77.7717 270.997C78.6769 271.036 78.632 271.034 79.4567 271.424C81.1552 273.581 78.9898 275.649 77.385 277.123C76.0192 277.028 76.2151 277.229 75.171 276.555C74.0415 274.238 75.8399 272.155 77.7717 270.997Z"/><path fill="#47422B" d="M66.8675 271.373L69.0543 271.926C69.6145 274.388 68.7222 278.434 65.2775 277.114C63.6004 275.053 65.0035 272.737 66.8675 271.373Z"/><path fill="#7D6330" d="M66.8675 271.373C68.0877 269.917 66.04 267.763 68.0671 266.704L68.9067 266.724C70.0256 268.396 69.0506 269.686 69.0543 271.926L66.8675 271.373Z"/><path fill="#7D6330" d="M90.0554 296.879C91.5173 297.101 91.9597 297.49 92.5612 298.697C92.4749 299.569 92.5103 299.658 91.9644 300.289L91.4411 300.286C89.7218 299.626 90.664 300.798 89.2135 299.841C89.0208 298.927 89.6601 297.818 90.0554 296.879Z"/><path fill="#A7874F" d="M100.405 285.778C100.916 286.044 100.748 285.946 101.154 286.389C101.369 287.627 101.331 289.618 100.312 290.493C98.6033 289.15 99.1671 287.248 100.405 285.778Z"/><defs><linearGradient id="gradient_0" gradientUnits="userSpaceOnUse" x1="230.87027" y1="208.54013" x2="233.72826" y2="252.46678"><stop offset="0" stop-color="#495548"/><stop offset="1" stop-color="#5C756E"/></linearGradient></defs><path fill="url(#gradient_0)" d="M296.875 199.818C297.801 199.871 297.449 199.75 298.241 200.62L298.267 200.378C299.094 200.428 298.856 200.755 299.781 200.65C301.836 202.333 307.527 208.389 305.423 211.223C305.035 211.582 304.75 211.782 304.531 212.267C305.228 214.699 303.469 214.577 303.088 216.123C302.062 220.277 301.657 223.593 297.7 226.072C294.403 231.087 292.182 232.815 287.07 235.931C285.82 236.692 285.119 237.974 283.65 238.271C283.363 240.087 283.043 240.69 281.837 242.021C277.117 243.908 272.307 246.483 267.582 248.483C253.635 254.386 238.459 256.503 223.443 257.459C222.448 257.522 221.368 257.378 220.486 257.436L219.867 257.583C212.933 258.265 196.55 256.07 189.767 253.916C188.35 253.911 182.48 250.802 181.112 249.787C177.998 247.477 176.349 245.567 175.594 241.824L174.941 239.289C173.807 235.65 178.037 229.034 180.525 226.153C186.358 219.399 194.947 212.768 203.494 210.006C203.948 209.859 204.227 210.277 204.561 210.564C204.669 212.02 204.692 213.049 204.671 214.51C204.932 219.147 203.198 225.413 207.251 228.499C213.227 233.048 225.011 233.94 231.584 230.937L233.767 229.853C234.238 229.001 234.785 227.949 235.277 227.13L235.272 222.467C243.294 225.064 251.776 227.922 259.912 230.076C263.269 230.964 266.702 230.835 269.694 231.44C277.246 230.242 281.344 232.804 288.406 227.114C292.211 224.049 296.99 221.553 297.943 215.918C298.668 211.626 297.647 208.138 295.309 204.675C294.976 203.495 294.624 202.716 294.908 201.545C295.535 200.552 295.881 200.412 296.875 199.818Z"/><defs><linearGradient id="gradient_1" gradientUnits="userSpaceOnUse" x1="192.78882" y1="259.95654" x2="212.463" y2="238.05737"><stop offset="0" stop-color="#536152"/><stop offset="1" stop-color="#708D8D"/></linearGradient></defs><path fill="url(#gradient_1)" d="M175.594 241.824C177.125 242.585 177.705 243.481 178.816 244.724C180.26 246.341 180.171 247.331 182.179 245.942C184.154 245.9 184.451 247.789 185.622 247.273L185.12 246.253C187.021 247.35 190.831 248.59 192.982 249.365C194.191 249.801 196.057 248.973 198.524 250.921L198.301 251.12L197.708 250.935L197.679 251.319C198.368 252.098 198.829 252.129 199.828 252.428L199.873 251.768C200.299 251.935 200.441 252.011 200.843 252.22C202.233 252.071 205.78 251.714 207.04 252.11C207.629 252.753 207.637 253.015 208.284 253.077C209.031 252.354 209.846 251.598 210.549 250.84C213.982 254.295 220.516 252.038 224.171 253.808C224.847 253.629 224.966 253.594 225.597 253.301C226.818 253.067 229.626 252.614 230.09 254.151C229.077 254.14 225.478 253.922 224.874 254.461C222.839 254.948 219.118 255.112 217.186 254.564C216.807 254.932 216.591 255.041 216.426 255.501C216.927 256.098 216.976 256.399 217.158 257.156L217.606 257.21L218.418 256.328C219.221 256.436 219.231 256.773 219.867 257.583C212.933 258.265 196.55 256.07 189.767 253.916C188.35 253.911 182.48 250.802 181.112 249.787C177.998 247.477 176.349 245.567 175.594 241.824Z"/><path fill="#50635C" d="M189.767 253.916C190.847 253.833 191.007 254.211 191.917 253.747L192.353 253.899L191.818 254.012L192.436 253.943L192.488 253.816C191.452 253.25 190.209 252.743 189.642 251.682C191.204 252.588 192.471 252.884 194.279 253.091C194.796 252.836 195.283 252.63 195.737 252.277C198.266 254.899 208.701 255.264 212.58 255.318C214.446 255.343 214.764 256.207 216.426 255.501C216.927 256.098 216.976 256.399 217.158 257.156L217.606 257.21L218.418 256.328C219.221 256.436 219.231 256.773 219.867 257.583C212.933 258.265 196.55 256.07 189.767 253.916Z"/><path fill="#586C63" d="M189.642 251.682C188.783 251.268 188.102 251.142 187.71 250.445C188.681 250.499 190.144 252.377 192.268 251.723C193.523 251.336 195.243 250.527 195.737 252.277C195.283 252.63 194.796 252.836 194.279 253.091C192.471 252.884 191.204 252.588 189.642 251.682Z"/><path fill="#4A5C52" d="M296.875 199.818C297.801 199.871 297.449 199.75 298.241 200.62L298.267 200.378C299.094 200.428 298.856 200.755 299.781 200.65C301.836 202.333 307.527 208.389 305.423 211.223C305.035 211.582 304.75 211.782 304.531 212.267C305.228 214.699 303.469 214.577 303.088 216.123C302.062 220.277 301.657 223.593 297.7 226.072L296.645 226.764L296.147 226.63L296.143 226.436C292.447 227.842 292.695 227.884 288.898 228.732L288.807 227.801C288.184 227.697 285.447 229.746 284.116 230.331C280.038 232.126 276.249 231.181 272.457 231.865L271.89 233.177L271.323 233.375L271.11 233.075L271.742 232.187L271.506 231.819C270.88 231.748 270.124 231.769 269.694 231.44C277.246 230.242 281.344 232.804 288.406 227.114C292.211 224.049 296.99 221.553 297.943 215.918C298.668 211.626 297.647 208.138 295.309 204.675C294.976 203.495 294.624 202.716 294.908 201.545C295.535 200.552 295.881 200.412 296.875 199.818Z"/><path fill="#50635C" d="M296.875 199.818C297.801 199.871 297.449 199.75 298.241 200.62L298.267 200.378C299.094 200.428 298.856 200.755 299.781 200.65C301.836 202.333 307.527 208.389 305.423 211.223C305.035 211.582 304.75 211.782 304.531 212.267C302.062 210.58 303.192 207.55 301.362 206.179L300.045 204.323C299.842 203.936 297.152 200.1 296.875 199.818Z"/><path fill="#586C63" d="M301.362 206.179C300.598 206.645 300.365 206.78 299.537 207.107L298.909 206.823L298.81 206.058C299.383 204.671 299.045 204.945 300.045 204.323L301.362 206.179Z"/><path fill="#4A5C52" d="M280.904 239.236C282.155 239.012 282.553 238.995 283.65 238.271C283.363 240.087 283.043 240.69 281.837 242.021C277.117 243.908 272.307 246.483 267.582 248.483C253.635 254.386 238.459 256.503 223.443 257.459C222.448 257.522 221.368 257.378 220.486 257.436L219.867 257.583C219.231 256.773 219.221 256.436 218.418 256.328L217.606 257.21L217.158 257.156C216.976 256.399 216.927 256.098 216.426 255.501C216.591 255.041 216.807 254.932 217.186 254.564C219.118 255.112 222.839 254.948 224.874 254.461C226.476 254.492 228.393 254.477 229.961 254.651C231.062 254.978 232.288 254.831 233.459 254.894C234.199 254.955 233.843 255.011 234.549 254.658C235.059 254.427 235.735 254.27 236.288 254.322C238.661 254.543 241.688 252.933 243.933 252.654C247.264 252.24 250.353 251.466 253.556 250.907C257.227 250.318 272.837 243.768 276.479 241.799C277.841 240.762 280.443 240.358 280.904 239.236Z"/><path fill="#5F756D" d="M216.426 255.501C216.591 255.041 216.807 254.932 217.186 254.564C219.118 255.112 222.839 254.948 224.874 254.461C226.476 254.492 228.393 254.477 229.961 254.651C231.062 254.978 232.288 254.831 233.459 254.894C229.95 256.112 223.235 253.476 220.486 257.436L219.867 257.583C219.231 256.773 219.221 256.436 218.418 256.328L217.606 257.21L217.158 257.156C216.976 256.399 216.927 256.098 216.426 255.501Z"/><path fill="#79948D" d="M232.961 251.803C235.037 249.75 241.083 251 243.899 250.388C246.006 249.931 248.18 248.54 250.311 248.553C250.811 249.215 250.802 249.17 250.817 249.995C249.463 250.572 248.659 249.445 246.696 249.878C246.039 250.55 246.245 250.148 246.161 251.17C247.655 252.593 249.949 250.264 253.556 250.907C250.353 251.466 247.264 252.24 243.933 252.654C241.688 252.933 238.661 254.543 236.288 254.322C235.735 254.27 235.059 254.427 234.549 254.658C233.843 255.011 234.199 254.955 233.459 254.894C232.288 254.831 231.062 254.978 229.961 254.651C228.393 254.477 226.476 254.492 224.874 254.461C225.478 253.922 229.077 254.14 230.09 254.151C229.626 252.614 226.818 253.067 225.597 253.301C226.743 252.732 227.256 252.237 228.267 252.554C230.875 252.313 230.255 250.683 232.961 251.803Z"/><path fill="#5F756D" d="M228.267 252.554C230.875 252.313 230.255 250.683 232.961 251.803C231.715 253.2 229.921 253.164 228.267 252.554Z"/><path fill="#50635C" d="M288.898 228.732C292.695 227.884 292.447 227.842 296.143 226.436L296.147 226.63L296.645 226.764L297.7 226.072C294.403 231.087 292.182 232.815 287.07 235.931C285.82 236.692 285.119 237.974 283.65 238.271C282.553 238.995 282.155 239.012 280.904 239.236C281.892 236.48 283.632 236.619 284.356 235.223C283.006 235.554 282.363 235.803 281.072 236.32C282.304 235.081 283.957 234.838 285.271 233.954C285.496 233.802 287.179 231.905 287.528 231.538L288.649 232.046C289.597 231.853 289.616 231.816 290.308 231.094L290.25 230.713C289.486 230.47 288.929 230.267 288.189 229.961L288.08 229.459L288.898 228.732Z"/><path fill="#586C63" d="M174.941 239.289C175.397 238.405 177.209 237.197 178.185 237.056L178.696 237.393C179.018 239.577 176.375 240.862 179.937 243.438C180.822 244.078 184.139 245.84 185.12 246.253L185.622 247.273C184.451 247.789 184.154 245.9 182.179 245.942C180.171 247.331 180.26 246.341 178.816 244.724C177.705 243.481 177.125 242.585 175.594 241.824L174.941 239.289Z"/><path fill="#586C63" d="M281.072 236.32C282.363 235.803 283.006 235.554 284.356 235.223C283.632 236.619 281.892 236.48 280.904 239.236C280.443 240.358 277.841 240.762 276.479 241.799C276.175 240.921 276.115 240.151 275.991 239.232L274.904 239.241L274.792 238.788L275.219 238.135C277.136 237.096 279.634 238.042 281.072 236.32Z"/><path fill="#485347" d="M204.561 210.564C204.669 212.02 204.692 213.049 204.671 214.51C204.152 214.039 203.118 213.917 202.302 213.682L202.107 213.316C204.299 212.593 203.975 212.637 204.561 210.564Z"/><path fill="#4A5C52" d="M233.767 229.853C233.948 231.086 234.066 230.717 233.622 231.727C232.512 231.95 232.377 231.718 231.584 230.937L233.767 229.853Z"/><path fill="#5F756D" d="M219.242 233.035C220.97 234.22 220.606 234.203 221.477 236.08L221.88 236.177L222.677 235.29L222.907 235.695C222.699 236.957 222.692 237.355 222.698 238.623L223.564 239.41C223.259 240.077 223.346 239.876 222.684 240.364C221.84 240.231 221.001 240.161 220.151 240.077C219.683 238.582 220.652 237.912 220.454 236.85C220.228 235.645 219.465 234.561 219.242 233.035Z"/><path fill="#586C63" d="M251.454 232.908L251.702 233.073C251.995 233.687 252.032 233.861 252.562 234.313L255.541 233.927L255.605 234.177C253.617 234.296 253.091 234.964 251.501 236.204C250.529 236.51 250.188 236.687 249.174 236.612C248.83 235.771 249.361 235.795 249.782 234.469L248.869 234.127C249.535 233.157 249.514 234.954 251.454 232.908Z"/><path fill="#5F756D" d="M201.946 226.709C203.855 226.586 204.952 227.488 204.803 229.48C203.246 229.283 202.195 228.212 201.946 226.709Z"/><path fill="#5F756D" d="M239.773 228.763C240.684 228.641 241.668 229.2 242.237 229.86C242.219 230.876 242.288 230.508 241.443 231.459C240.856 231.022 239.674 230.075 239.513 229.379L239.168 229.393C239.7 229.107 239.504 229.309 239.773 228.763Z"/><path fill="#50635C" d="M198.461 230.879L198.793 231.071C199.014 232.194 198.179 233.532 197.65 234.705L197.197 234.488L196.96 233.684C197.184 232.524 197.779 231.859 198.461 230.879Z"/><path fill="#79948D" d="M257.752 246.64L257.997 246.629C257.722 247.883 257.966 247.647 257.183 248.403L256.522 248.275C256.143 247.942 255.755 247.626 255.366 247.305C256.161 246.986 256.92 246.837 257.752 246.64Z"/><path fill="#5F756D" d="M215.807 237.499L216.326 238.208C216.042 239.139 215.506 239.271 214.576 239.972L214.168 239.743C214.24 238.883 215.087 238.281 215.807 237.499Z"/><path fill="#50635C" d="M240.449 242.615C240.859 242.466 241.317 242.622 241.55 242.991C241.783 243.359 241.726 243.84 241.415 244.146C241.145 244.41 240.741 244.484 240.395 244.332C240.049 244.18 239.83 243.833 239.842 243.455C239.854 243.078 240.094 242.745 240.449 242.615Z"/><path fill="#4A5C52" d="M194.597 233.85C195.084 233.938 195.333 234.034 195.797 234.183C196.331 235.161 196.122 235.204 196.009 236.448C194.904 235.73 194.767 235.099 194.597 233.85Z"/><path fill="#5F756D" d="M228.333 248.87C229.399 248.894 229.637 248.708 230.342 249.273L230.385 250.055C229.278 249.959 228.902 250.105 228.076 249.529L228.333 248.87Z"/><path fill="#50635C" d="M230.882 248.714L231.698 249.01C232.312 250.004 232.113 249.878 232.047 251.172L231.392 250.824C230.725 249.768 230.922 250.198 230.882 248.714Z"/><path fill="#586C63" d="M221.601 242.498C222.124 242.796 221.906 242.6 222.24 243.148L221.649 244.276C220.927 243.877 221.156 244.161 220.879 243.449L221.601 242.498Z"/><defs><linearGradient id="gradient_2" gradientUnits="userSpaceOnUse" x1="272.7475" y1="378.24423" x2="281.47855" y2="427.9946"><stop offset="0" stop-color="#6A5225"/><stop offset="1" stop-color="#8B6D36"/></linearGradient></defs><path fill="url(#gradient_2)" d="M246.387 417.102C277.31 416.321 319.878 405.098 342.307 382.253C347.497 376.966 350.35 370.593 352.629 363.633L352.845 363.667C353.744 365.927 353.524 367.72 354.203 369.644C356.771 376.916 356.533 384.613 351.25 391.202C333.09 413.854 301.83 425.479 273.876 429.964C266.307 431.178 257.922 431.821 250.243 432.049C234.847 431.418 214.011 429.993 201.216 420.826C195.057 416.414 194.699 408.088 193.761 401.146C196.206 404.844 196.468 405.325 200.681 407.597C213.683 414.61 228.722 415.918 243.18 417.013C243.298 417.046 243.416 417.078 243.535 417.111L246.387 417.102Z"/><path fill="#7D6330" d="M243.535 417.111L246.387 417.102L246.27 417.657C245.679 418.302 245.951 418.101 245.038 418.345C243.837 417.926 244.245 418.243 243.535 417.111Z"/><path fill="#7D6330" d="M349.876 386.923L350.134 387.406C349.995 388.622 349.3 389.426 348.606 390.473C347.748 389.609 349.244 387.591 349.876 386.923Z"/><path fill="#586C63" d="M250.269 139.035C255.717 136.289 261.006 134.643 267.079 134.083C267.028 134.256 266.757 135.152 266.751 135.265C267.016 135.444 267.324 135.617 267.53 135.848C266.173 136.646 266.106 137.106 266.2 138.786L266.617 139.484C267.681 139.681 267.813 139.287 268.735 138.622L269.159 138.806C269.452 140.32 269.222 140.313 270.091 141.361L270.613 141.556C271.203 140.069 270.686 139.852 271.612 139.02C274.167 138.787 275.375 139.105 276.069 136.458L276.544 136.437L276.203 137.59L276.538 137.969L276.973 137.705C277.057 137.062 277.103 137.078 276.857 136.491L277.419 136.887C277.499 137.522 277.531 137.62 277.468 138.277C279.19 139.284 279.331 138.828 280.621 139.396L279.609 140.095L279.783 140.512C281.289 140.347 281.005 139.431 282.848 139.485C283.046 140.223 283.58 141.704 283.327 142.314C281.984 142.822 279.713 143.012 278.205 143.062C272.651 143.248 263.191 145.354 259.322 149.542C242.747 161.83 233.894 175.965 230.355 196.635C228.846 205.447 228.559 213.176 229.3 222.072C229.394 223.327 229.92 225.939 229.069 226.384C227.297 227.311 223.544 227.544 221.646 227.477C219.027 227.344 212.298 226.698 210.613 224.538C209.737 223.416 209.945 222.125 210.057 220.823C207.808 198.428 215.013 167.919 231.879 151.861C237.428 146.578 243.102 141.952 250.269 139.035Z"/><path fill="#4A5C52" d="M250.269 139.035C255.717 136.289 261.006 134.643 267.079 134.083C267.028 134.256 266.757 135.152 266.751 135.265C264.478 138.057 262.66 136.509 259.844 137.147C255.851 138.052 254.628 141.196 250.269 139.035Z"/><path fill="#485347" d="M210.057 220.823C210.961 221.508 211.088 221.606 212.181 221.89C213.253 223.552 211.473 223.366 213.945 224.713L213.611 225.488C215.67 226.466 218.496 226.208 221.302 227.341L221.646 227.477C219.027 227.344 212.298 226.698 210.613 224.538C209.737 223.416 209.945 222.125 210.057 220.823Z"/><path fill="#5F756D" d="M240.735 161.833C242.202 161.388 242.809 158.744 243.215 157.274L242.886 157.164C241.902 157.928 241.08 158.886 240.069 158.938L239.852 158.625C241.456 156.108 245.9 154.941 246.084 152.192C245.208 151.581 244.166 150.503 243.446 150.516C243.314 152.217 243.292 153.841 242.024 155.077C240.826 155.154 240.556 154.695 239.665 153.886L239.28 153.985C238.813 154.103 238.708 154.114 238.211 154.12L237.837 153.486C238.404 151.596 241.785 149.427 243.469 148.538C246.918 146.719 246.211 150.318 250.535 149.531C251.064 149.744 251.414 149.805 251.696 150.288C250.851 151.46 250.378 150.841 249.241 152.708C248.184 154.353 247.817 156.346 246.572 157.86C246.378 158.096 243.936 158.611 243.975 158.566C241.789 161.125 242.402 161.786 239.137 163.364C239.596 162.737 240.143 162.333 240.735 161.833Z"/><path fill="#79948D" d="M234.35 167.421C234.588 167.624 235.19 168.4 235.03 168.729C233.667 171.534 232.151 174.711 230.741 177.465C229.468 179.95 228.418 185.985 226.708 187.612L226.051 187.556C222.818 185.521 226.461 179.843 227.855 177.549C228.822 177.309 228.545 177.4 229.668 177.824C229.767 178.093 229.822 178.087 230.039 178.318C230.9 174.672 234.484 169.987 234.407 168.624L233.907 168.306C230.505 168.977 230.114 176.162 229.303 177.165L228.87 176.839C230.147 174.522 229.018 174.057 229.446 171.539C229.479 171.344 229.516 171.354 229.758 171.462C232.131 172.533 229.999 169.191 234.35 167.421Z"/><path fill="#79948D" d="M262.728 137.954L263.401 138.226C263.687 139.472 262.579 141.391 261.457 141.808C261.172 141.251 261.22 141.2 260.68 140.923C259.668 141.62 258.91 143.453 257.037 144.931C256.157 145.135 256.444 145.193 255.674 144.933C255.11 139.902 260.218 140.801 262.728 137.954Z"/><path fill="#5F756D" d="M239.137 163.364C238.387 164.236 237.86 165.181 236.882 165.482C236.885 164.344 238.581 160.757 239.593 160.317C240.4 160.796 240.221 160.838 240.735 161.833C240.143 162.333 239.596 162.737 239.137 163.364Z"/><path fill="#5F756D" d="M238.022 155.565L238.264 156.586C237.822 157.561 236.983 159.135 235.991 159.537L235.579 159.199C235.273 158.209 235.184 157.971 235.094 156.954C236.305 155.954 235.634 157.419 238.022 155.565Z"/><path fill="#50635C" d="M211.026 210.6C212.105 210.657 212.422 210.612 213.411 211.052L213.364 211.573C212.558 212.347 212.168 212.598 212.02 213.782C211.921 214.002 211.556 214.381 211.377 214.586L210.972 214.434C210.544 213.128 210.804 211.955 211.026 210.6Z"/><path fill="#5F756D" d="M226.953 191.42C228.224 191.659 228.931 191.571 229.801 192.312L229.791 193.149C228.712 193.372 228.15 193.607 227.128 193.234C226.609 192.348 226.753 192.683 226.953 191.42Z"/><path fill="#50635C" d="M223.61 208.816L223.953 208.859L224.092 209.437C223.302 210.081 222.803 209.934 221.635 210.074L221.501 210.147L221.072 210L221.093 209.476C222.187 208.702 222.094 208.934 223.61 208.816Z"/><path fill="#50635C" d="M219.359 190.463C220.26 191.113 220.153 190.826 220.396 191.688L219.531 193.186C219.042 192.847 219.108 192.825 218.75 192.306C218.709 191.153 218.623 191.614 219.359 190.463Z"/><path fill="#5F756D" d="M225.378 215.926C226.369 216.874 226.426 217.155 226.275 218.412C225.859 218.282 225.402 218.096 224.989 217.94C224.686 217.169 225.008 216.893 225.378 215.926Z"/><path fill="#50635C" d="M149.793 299.873C160.691 307.633 171.249 315.479 181.798 323.699C182.888 324.549 187.82 327.555 188.211 328.074L187.742 328.168C187.03 327.337 185.562 326.713 184.555 326.194C182.941 326.273 180.171 326.404 178.95 327.499L178.461 328.587C178.725 329.096 178.716 329.099 179.108 329.514L179.378 329.701C180.582 330.549 180.782 330.817 181.639 332.005C182.411 332.22 182.41 332.179 183.227 332.077C183.697 332.325 183.729 332.231 183.931 332.575C185.182 333.266 186.099 334.298 187.359 335.236C188.33 334.912 188.613 334.751 189.502 334.235L189.629 334.628C188.919 335.752 188.491 336.024 188.432 337.209C189.112 337.941 189.211 338.083 190.175 338.292C191.28 338.095 191.712 337.474 192.536 336.666L193.034 336.738C193.887 338.138 193.437 338.94 192.99 340.448C195.92 342.096 198.535 341.005 199.949 344.396L199.815 345.14C200.4 345.707 200.973 346.242 201.575 346.791C201.56 347.737 201.715 347.55 201.217 348.046C200.404 347.87 200.185 347.803 199.414 347.492C198.548 348.896 199.984 350.887 199.309 351.653C198.672 351.288 196.38 349.989 196.263 349.486C196.71 349.272 198.347 348.548 198.602 348.28C197.519 348.34 196.227 348.597 195.151 348.849C195.339 348.805 194.12 348.444 194.024 348.423C193.278 349.463 192.911 349.436 191.699 348.852L191.323 348.319C192.194 347.055 192.512 348.152 192.413 347.038L191.966 346.893C191.497 347.143 191.139 347.312 190.718 347.648C189.944 347.303 189.948 347.35 189.519 346.646L189.831 346.577C190.998 346.313 191.25 346.246 192.224 345.464L192.352 344.994C191.16 345.391 191.092 345.702 190.105 345.429C189.534 344.827 189.056 344.338 189.064 343.436C187.472 344.308 187.937 345.604 186.957 346.102C186.216 345.271 186.119 344.808 185.766 343.781L186.029 343.197C185.303 343.564 185.14 343.968 184.668 344.67C183.688 344.572 183.354 343.416 183.061 342.557L183.174 341.978C184.427 341.354 185.463 341.823 186.547 342.645L186.902 342.09L186.702 341.42C185.608 341.141 183.502 341.225 182.445 341.632L182.133 342.149C182.545 343.185 182.881 343.46 182.595 344.33C181.766 344.832 182.098 344.793 181.261 344.689C179.696 343.406 180.482 342.553 179.225 342.19L177.975 342.48L177.628 342.068C177.968 341.213 178.161 341.122 178.862 340.475L178.519 339.955C177.968 340.073 178.232 340.112 177.715 339.942C177.464 339.441 177.398 339.502 177.401 339.019L176.514 338.859C176.396 339.924 176.58 339.605 175.95 340.327C175.276 340.267 175.093 340.2 174.465 340.478C174.389 341.35 174.502 342.079 173.835 342.594L173.316 342.403C173.113 341.242 174.327 339.6 174.976 338.557L174.071 338.11C173.176 338.392 172.747 338.698 171.962 339.171L171.456 338.989C171.644 338.446 171.806 338.054 172.029 337.53L171.554 337.501C171.32 338.276 171.284 338.58 170.818 339.223C170.493 337.982 170.142 336.758 169.791 335.525C168.33 335.054 168.006 335.045 167.513 333.674C166.827 334.644 167.159 334.453 166.179 334.866L165.67 334.518C165.457 333.488 165.418 333.502 164.637 332.764C165.249 332.357 165.958 332.12 166.646 331.851C165.701 331.203 165.518 331.24 165.738 330.119C166.619 329.289 166.164 329.499 167.514 329.421L167.465 329.101L167.538 329.411C166.673 329.363 167.859 329.468 166.677 328.273C166.098 328.243 165.571 328.332 164.995 328.401C165.078 327.581 165.113 327.61 164.728 326.904L164.322 326.827C163.553 327.993 162.654 329.548 161.583 330.378C161.046 330.015 160.633 328.869 160.295 328.18L159.747 328.171L159.911 327.948L160.427 328.377L159.613 328.661L159.556 329.025L158.892 329.389L158.96 329.874C160.139 331.146 162.251 331.393 163.925 331.715L163.566 332.264C161.248 332.763 157.874 329.175 155.025 328.983L154.726 328.448C155.396 327.576 156.705 329.008 158.677 328.246C159.051 327.264 159.54 325.743 159.018 324.762C155.779 323.572 158.917 323.141 155.721 320.949L155.619 320.391C156.25 319.368 156.741 318.76 156.825 317.545C156.714 317.806 156.557 318.241 156.306 318.395C154.996 319.198 155.705 320.581 154.247 321.163C152.934 320.555 154.285 320.254 152.491 318.594L152.044 318.67C151.993 319.481 151.954 320.262 151.928 321.074L151.498 321.017C148.967 318.967 151.287 317.554 146.758 316.888C144.26 316.52 147.058 312.931 146.061 310.602C142.708 311.784 145.314 312.461 144.205 313.846L143.749 313.572L143.752 312.719C143.541 313.313 143.593 313.32 143.084 313.671L142.696 313.466C142.622 312.718 142.821 312.769 143.431 311.948L143.288 311.579L142.343 311.326C141.594 310.009 140.67 307.543 140.939 305.998C143.266 306.675 143.772 308.194 145.404 308.426C146.933 307.491 146.618 304.034 147.166 302.416C147.266 302.12 149.437 300.209 149.793 299.873Z"/><path fill="#5F756D" d="M172.9 329.625C170.246 326.956 169.728 327.032 165.991 327.131L165.738 326.756C166.082 326.402 166.407 326.379 166.872 326.279L167.065 325.667C166.176 322.731 163.835 322.493 162.903 320.074L163.356 319.78C164.802 320.592 164.765 320.267 166.203 319.673C167.24 320.068 169.371 323.344 171.019 324.646C172.631 324.676 171.297 324.006 172.673 323.496C173.381 326.364 173.022 324.952 175.027 325.279L174.816 325.973L174.091 326.193C174.308 327.704 174.391 328.073 173.703 329.37L172.9 329.625Z"/><path fill="#586C63" d="M172.9 329.625L173.703 329.37C174.391 328.073 174.308 327.704 174.091 326.193L174.816 325.973L174.524 326.456C175.513 327.312 177.902 329.117 179.108 329.514L179.378 329.701C180.582 330.549 180.782 330.817 181.639 332.005C182.411 332.22 182.41 332.179 183.227 332.077C183.697 332.325 183.729 332.231 183.931 332.575C184.631 333.561 185.502 334.366 184.883 335.542L184.303 335.712C182.321 335.353 176.954 332.206 175.643 330.853C175.514 329.823 175.549 329.273 174.694 328.618C174.134 329.491 174.184 329.758 173.359 330.041L172.9 329.625Z"/><path fill="#4A5C52" d="M176.514 338.859C177.244 337.796 177.576 336.904 178.594 336.453C179.449 336.889 179.497 337.144 180.003 338.021C179.547 338.447 178.204 338.655 177.401 339.019L176.514 338.859Z"/><path fill="#5F756D" d="M153.031 311.472C154.057 311.826 154.169 311.981 154.918 312.781C155.244 313.864 155.272 313.46 155.018 314.491L154.45 314.631L154.093 314.038C153.038 313.235 152.358 313.142 151.078 312.801C151.794 312.348 152.354 311.98 153.031 311.472Z"/><path fill="#5F756D" d="M158.611 323.036L159.863 323.197C160.692 323.825 160.428 323.602 160.75 324.858C159.543 324.111 159.152 324.151 158.611 323.036Z"/><path fill="#7D6330" d="M117.188 251.216C118.047 251.962 120.47 261.224 120.883 262.78C126.225 282.909 115.393 303.692 97.2497 313.06C94.5316 314.463 89.3949 315.533 86.4371 316.254C84.4356 316.447 82.9431 316.868 81.013 317.36C83.3869 315.627 86.219 314.002 88.6004 312.293C102.644 301.784 113.222 284.032 116.403 266.837C117.344 261.751 116.263 255.674 117.188 251.216Z"/><path fill="#485347" d="M295.309 204.675C279.903 195.152 257.683 197.577 241.328 202.205C239.336 202.769 236.624 204.567 234.858 203.946C234.796 203.791 234.734 203.637 234.673 203.482C234.514 202.742 235.045 198.949 235.563 198.507C236.829 197.43 240.916 196.755 242.477 196.397C254.193 193.712 265.432 191.953 277.492 193.463C284.189 194.302 289.957 194.974 296.061 198.253C297.328 198.934 298.862 199.492 299.781 200.65C298.856 200.755 299.094 200.428 298.267 200.378L298.241 200.62C297.449 199.75 297.801 199.871 296.875 199.818C295.881 200.412 295.535 200.552 294.908 201.545C294.624 202.716 294.976 203.495 295.309 204.675Z"/><path fill="#50635C" d="M267.079 134.083C271.359 133.397 274.656 133.477 278.955 133.922C293.267 134.42 299.293 139.074 310.208 147.288C323.375 157.199 328.186 166.047 335.228 180.904L335.364 180.909L335.357 180.977C334.947 180.215 333.818 178.958 333.582 178.463C328.002 166.754 321.526 155.439 310.482 148.004C307.597 146.061 305.012 143.367 301.151 142.999C301.356 146.29 309.086 146.678 308.496 152.794L308.247 152.799C308.211 152.116 308.212 151.933 308.025 151.248L307.782 152.196C305.313 152.082 306.172 150.135 304.245 149.028C302.979 149.16 303.417 149.284 302.484 148.708L301.92 147.531C300.384 147.101 299.028 146.857 297.502 146.46C296.775 146.271 294.788 144.786 293.921 144.6C285.246 142.739 276.615 142.873 268.092 145.337C265.836 145.989 261.619 148.687 259.322 149.542C263.191 145.354 272.651 143.248 278.205 143.062C279.713 143.012 281.984 142.822 283.327 142.314C283.58 141.704 283.046 140.223 282.848 139.485C281.005 139.431 281.289 140.347 279.783 140.512L279.609 140.095L280.621 139.396C279.331 138.828 279.19 139.284 277.468 138.277C277.531 137.62 277.499 137.522 277.419 136.887L276.857 136.491C277.103 137.078 277.057 137.062 276.973 137.705L276.538 137.969L276.203 137.59L276.544 136.437L276.069 136.458C275.375 139.105 274.167 138.787 271.612 139.02C270.686 139.852 271.203 140.069 270.613 141.556L270.091 141.361C269.222 140.313 269.452 140.32 269.159 138.806L268.735 138.622C267.813 139.287 267.681 139.681 266.617 139.484L266.2 138.786C266.106 137.106 266.173 136.646 267.53 135.848C267.324 135.617 267.016 135.444 266.751 135.265C266.757 135.152 267.028 134.256 267.079 134.083Z"/><path fill="#586C63" d="M267.079 134.083C271.359 133.397 274.656 133.477 278.955 133.922C277.889 134.084 275.275 134.299 274.601 134.832L274.516 134.98C272.808 134.767 272.673 134.619 271.338 135.767C270.284 136.444 269.653 136.999 268.419 137.07C267.611 136.605 267.871 136.885 267.53 135.848C267.324 135.617 267.016 135.444 266.751 135.265C266.757 135.152 267.028 134.256 267.079 134.083Z"/><path fill="#5F756D" d="M271.338 135.767C272.673 134.619 272.808 134.767 274.516 134.98L273.942 136C272.741 136.332 272.673 136.097 271.338 135.767Z"/><defs><linearGradient id="gradient_3" gradientUnits="userSpaceOnUse" x1="140.21022" y1="291.64395" x2="131.85693" y2="300.27521"><stop offset="0" stop-color="#4F5C4F"/><stop offset="1" stop-color="#59716A"/></linearGradient></defs><path fill="url(#gradient_3)" d="M125.091 287.601C126.456 285.942 125.872 285.02 127.32 283.975C128.385 284.209 129.836 285.656 130.746 286.44C131.872 287.268 132.811 287.948 133.857 288.881C139.007 292.255 144.859 296.231 149.793 299.873C149.437 300.209 147.266 302.12 147.166 302.416C146.618 304.034 146.933 307.491 145.404 308.426C143.772 308.194 143.266 306.675 140.939 305.998C140.298 305.523 139.802 304.645 139.257 304.3C136.47 302.537 134.285 300.407 131.773 298.446C131.107 298.972 131.072 299.013 130.28 299.284C126.009 298.451 130.107 296.49 127.303 292.912C125.927 292.278 124.79 289.195 125.091 287.601Z"/><path fill="#5F756D" d="M125.091 287.601L125.33 287.851C127.41 290.002 132.789 293.303 133.761 296.067L133.546 296.609C133.023 296.773 132.729 297.008 132.186 296.555C129.854 294.609 130.464 294.045 127.303 292.912C125.927 292.278 124.79 289.195 125.091 287.601Z"/><path fill="#50635C" d="M130.746 286.44C131.872 287.268 132.811 287.948 133.857 288.881C132.22 288.564 130.007 288.879 129.05 287.868C129.413 286.898 129.634 287.039 130.746 286.44Z"/><path fill="#4A5C52" d="M208.785 344.745C215.943 349.303 218.218 382.113 211.134 377.643C210.152 376.134 210.021 374.734 209.979 372.962C210.449 373.086 210.454 373.063 210.944 373.03L211.018 372.169C209.766 370.217 201.664 368.527 201.132 366.354C201.509 365.189 201.251 365.477 202.068 364.709L202.532 364.872C202.088 365.527 202.066 365.611 201.809 366.368L202.161 366.79C205.661 368.652 205.518 366.852 209.109 370.541L209.668 370.23C209.631 368.925 207.734 367.525 207.899 366.017C207.967 365.402 207.831 364.908 207.652 364.332L207.241 364.341L206.994 365.197C206.168 365.815 206.575 365.683 205.444 365.594C204.613 365.023 204.824 365.333 204.492 364.455C205.593 363.049 207.244 363.279 208.015 362.179C207.235 361.241 206.657 360.833 207.031 359.635L207.23 359.568L207.615 360.621C208.521 361.348 212.804 363.021 213.643 362.495L212.772 361.994L213.014 361.688L214.034 361.775L214.265 361.481C213.493 361.43 213.513 361.569 213.083 361.154C213.493 360.911 213.725 360.939 214.2 360.907L214.386 360.895C214.565 359.927 213.728 358.489 213.776 357.806C214.145 352.53 210.266 348.92 208.785 344.745Z"/><path fill="#4A5C52" d="M211.296 368.357C211.426 368.054 211.722 367.855 212.051 367.848C212.381 367.841 212.685 368.027 212.828 368.324C212.971 368.621 212.927 368.974 212.716 369.228C212.448 369.548 211.986 369.624 211.63 369.406C211.274 369.187 211.132 368.741 211.296 368.357Z"/><path fill="#485347" d="M304.531 212.267C304.75 211.782 305.035 211.582 305.423 211.223C307.012 213.801 306.695 214.333 306.077 217.309C304.271 226.008 298.497 229.879 292.158 234.949C288.044 238.24 286.228 239.312 281.837 242.021C283.043 240.69 283.363 240.087 283.65 238.271C285.119 237.974 285.82 236.692 287.07 235.931C292.182 232.815 294.403 231.087 297.7 226.072C301.657 223.593 302.062 220.277 303.088 216.123C303.469 214.577 305.228 214.699 304.531 212.267Z"/><path fill="#586C63" d="M202.141 347.542C204.496 347.575 205.185 350.443 205.473 352.286L205.633 352.283C206.016 351.397 206.054 351.066 206.819 350.567L207.379 350.794C208.01 351.748 208.11 351.568 208.111 352.515C207.668 353.033 207.443 353.212 207.264 353.878C207.645 354.337 207.848 354.494 207.945 355.086C207.242 355.262 207.064 355.324 206.393 355.603C207.501 356.496 208.01 356.434 208.571 357.556L207.917 358.778L207.505 358.634C206.765 357.76 206.989 358.148 206.864 356.742L206.386 356.482C205.619 357.031 205.473 357.318 204.9 358.09C204.31 357.874 203.843 356.744 203.411 356.035C199.98 354.442 200.056 353.561 201.573 350.165C200.91 350.187 200.499 350.279 199.941 349.935C200.213 348.838 201.192 348.237 202.141 347.542Z"/><path fill="#50635C" d="M149.113 321.69C150.241 322.364 150.276 323.1 151.392 323.295L152.362 321.907L152.825 321.833C153.257 322.231 153.186 322.222 153.479 322.756C153.453 324.349 153.154 323.351 152.364 324.979C152.748 325.654 152.479 325.432 153.157 325.71C153.749 324.823 154.709 323.867 154.673 322.892C154.662 322.6 155.008 322.292 155.249 321.984L155.817 322.481C156.131 324.157 155.444 326.315 154.169 327.446C153.428 327.243 152.409 325.385 151.74 324.739C150.589 323.627 149.654 323.256 149.113 321.69Z"/><path fill="#50635C" d="M164.307 335.176C165.162 335.564 165.014 335.868 166.126 336.268C166.718 335.785 166.849 335.611 167.606 335.436L168.038 335.917L167.868 336.657C167.329 337.819 167.551 337.838 166.621 338.338L166.04 337.974C165.425 336.767 165.08 336.269 164.307 335.176Z"/><path fill="#50635C" d="M171.74 340.488C172.172 340.614 171.975 340.547 172.347 340.942C171.443 342.718 170.465 342.753 168.644 342.239L168.365 341.59C169.882 341.204 170.395 341.416 171.74 340.488Z"/><path fill="#50635C" d="M191.988 353.351C192.879 353.556 195.36 354.431 195.918 354.994L195.525 355.635C194.968 355.83 194.336 355.626 193.792 355.443C193.109 354.481 192.802 354.168 191.988 353.351Z"/><path fill="#50635C" d="M94.407 363.636L95.3372 364.044C96.2784 364.951 96.3232 367.529 96.3932 368.846C97.0634 381.446 99.1062 393.74 104.242 405.37C109.249 416.71 121.061 432.058 111.142 444.045C108.294 447.487 104.728 448.392 100.467 448.606C90.2405 448.53 84.1326 439.884 81.4925 430.957C79.9057 425.591 79.9182 421.127 79.7486 415.64C79.3176 401.698 82.2985 388.341 87.5587 375.475C88.8329 372.327 89.9909 368.884 91.6444 365.879C92.5258 364.278 92.6706 364.147 94.407 363.636Z"/><path fill="#79948D" d="M91.3201 380.614C91.5146 380.796 94.2997 394.015 94.4005 395.43C95.1951 406.585 120.064 436.284 102.631 442.621C101.346 442.909 99.0441 443.115 97.8716 442.595C77.4434 433.535 87.0668 393.722 91.3201 380.614Z"/><path fill="#95B0AA" d="M95.5423 432.054C94.9365 432.729 94.5314 433.087 93.843 433.68C89.5586 434.457 88.3815 423.654 89.1226 422.207C90.1021 421.881 90.5764 422.077 91.5948 422.279C92.3957 423.16 92.2295 423.642 92.4504 425.002C93.0933 425.418 93.1125 425.381 93.4942 426.085C94.6331 426.293 95.8043 426.331 96.5535 427.11C97.182 428.825 96.1323 429.964 96.3436 431.557L95.5423 432.054Z"/><path fill="#8FABA0" d="M92.4504 425.002C93.0933 425.418 93.1125 425.381 93.4942 426.085C94.6331 426.293 95.8043 426.331 96.5535 427.11C97.182 428.825 96.1323 429.964 96.3436 431.557L95.5423 432.054C94.8285 428.797 92.6011 426.439 92.4504 425.002Z"/><path fill="#50635C" d="M78.0909 329.906C79.7999 329.954 80.1301 329.983 81.032 331.333C81.229 332.837 79.0492 337.455 78.3205 339.158C73.5643 350.271 71.5835 362.045 70.5203 374.008C69.9236 380.722 70.3134 387.941 66.176 393.672C61.3879 400.344 54.4037 403.366 47.1721 398.235C38.8798 390.817 40.3335 380.284 43.9426 370.787C48.9849 357.519 58.5171 345.352 69.1907 336.126C71.5833 334.058 75.2235 331.203 78.0909 329.906Z"/><path fill="#79948D" d="M70.4433 342.116C71.0973 342.829 68.3791 351.089 67.9687 352.595C65.8294 360.447 65.0151 368.362 64.4391 376.47C63.9403 383.491 62.8903 392.443 54.7544 394.562C52.6375 395.113 50.9263 393.982 49.4229 392.658C48.1831 390.889 46.7678 387.934 46.821 385.739C47.1652 371.551 55.3062 359.156 64.2462 348.697C66.1902 346.423 68.477 344.46 70.4433 342.116Z"/><path fill="#50635C" d="M63.3258 412.116C64.3947 411.954 65.5035 411.762 66.254 412.548C67.4239 416.388 67.1868 426.157 68.1745 430.931C70.0689 440.088 75.991 454.406 67.629 461.56C65.1552 463.677 61.642 463.852 58.5194 463.451C52.7229 461.998 49.6511 457.174 49.2299 451.377C48.4571 440.742 53.1931 430.197 58.0069 420.993C59.5285 418.083 61.2325 414.607 63.3258 412.116Z"/><path fill="#79948D" d="M61.6362 424.389C61.9208 431.918 63.2365 437.418 65.351 444.686C65.989 446.879 66.498 454.489 64.2742 456.553C56.8019 461.013 53.3228 452.257 54.9804 446.818L54.9913 446.515C55.0661 439.222 58.7197 431.004 61.6362 424.389Z"/><path fill="#8FABA0" d="M54.9913 446.515L55.3867 447.129C56.6284 446.381 56.4123 446.289 57.8006 446.938C58.7882 446.427 58.7253 446.192 59.3882 445.192C59.7549 447.865 59.4285 450.112 58.8411 452.697L55.0537 451.274C55.0582 450.337 55.1246 447.585 54.9804 446.818L54.9913 446.515Z"/></svg>